<svg xmlns="http://www.w3.org/2000/svg" viewBox="0 0 200 66"><title>abitcompany - Logo</title><path d="M43,43.2,40.8,41a11.31,11.31,0,0,1-1.42,1.17,10.08,10.08,0,0,1-1.61.9,10.44,10.44,0,0,1-1.72.62,10.69,10.69,0,0,1-1.81.3l-.85,0c-.32,0-.64,0-1,0a10.78,10.78,0,0,1-1.8-.33A10.09,10.09,0,0,1,28.88,43a12,12,0,0,1-1.58-.92,10.78,10.78,0,0,1-2.58-2.58,11.4,11.4,0,0,1-.92-1.58,11.28,11.28,0,0,1-.63-1.71,11.16,11.16,0,0,1-.33-1.8c0-.36,0-.68,0-1s0-.52,0-.84a10.64,10.64,0,0,1,.3-1.82A10.78,10.78,0,0,1,23.75,29a10.08,10.08,0,0,1,.9-1.61A10.58,10.58,0,0,1,25.83,26a10.86,10.86,0,0,1,1.4-1.21,11.24,11.24,0,0,1,1.59-.94,10.94,10.94,0,0,1,1.74-.65,10.39,10.39,0,0,1,1.82-.33,8.86,8.86,0,0,1,1-.05l.86,0a11.84,11.84,0,0,1,1.83.31,11.45,11.45,0,0,1,1.75.63,10.8,10.8,0,0,1,1.62.93,11.21,11.21,0,0,1,1.43,1.2l2.22-2.22L55.59,11.19a31.63,31.63,0,0,0-4.22-3.52,30.69,30.69,0,0,0-4.76-2.75L40.48,18.08h0a16.85,16.85,0,0,0-2.78-1l3.76-14A31.21,31.21,0,0,0,36,2.12C35.16,2.05,34.28,2,33.39,2s-1.9,0-2.84.13a31.94,31.94,0,0,0-5.4,1l3.76,14h0a16.94,16.94,0,0,0-2.74,1L20,5a31.32,31.32,0,0,0-4.73,2.77L23.6,19.65l0,0a16.78,16.78,0,0,0-2.22,1.89L11.1,11.29A32,32,0,0,0,7.6,15.5l11.89,8.33v0a15.69,15.69,0,0,0-1.43,2.53L4.89,20.24A31.15,31.15,0,0,0,3,25.38a31.82,31.82,0,0,0-.91,5.38C2.05,31.63,2,32.5,2,33.39s0,1.89.13,2.82L16.59,35v0a17.22,17.22,0,0,0,.52,2.85l-14,3.76A29.78,29.78,0,0,0,5,46.7l13.16-6.14v0a17.14,17.14,0,0,0,1.47,2.51L7.7,51.41a31.7,31.7,0,0,0,3.49,4.18,32.57,32.57,0,0,0,4.18,3.5L23.69,47.2a17.61,17.61,0,0,0,2.51,1.46h0L20.08,61.82a30.4,30.4,0,0,0,5.12,1.87,31.58,31.58,0,0,0,5.37,1l1.26-14.46c.53.05,1.06.07,1.56.07s.85,0,1.34,0h0L36,64.66a31.82,31.82,0,0,0,5.38-.91l-3.76-14a17.91,17.91,0,0,0,2.74-1h0l6.14,13.15a31.23,31.23,0,0,0,4.74-2.71,32,32,0,0,0,4.21-3.5L43,43.2Z" style="fill:#0c35fb"/><path d="M61.39,39.23l-.25-1a3.94,3.94,0,0,1-3.2,1.28c-2.19,0-4.22-1.32-4.22-3.73,0-2.89,2.68-3.81,5.12-3.81a10.25,10.25,0,0,1,2.12.25V32c0-1.47-.6-2.37-2.32-2.37a7.68,7.68,0,0,0-3.56,1l-.85-2.28a11.74,11.74,0,0,1,5.06-1.21c3.26,0,4.85,1.9,4.85,5v7.06ZM61,34.11a7.6,7.6,0,0,0-1.61-.2c-1.16,0-2.52.42-2.52,1.81a1.61,1.61,0,0,0,1.78,1.57,3.48,3.48,0,0,0,2.35-1Z" style="fill:#fff"/><path d="M70.73,22.46V28.7a4.44,4.44,0,0,1,3.47-1.5c3.13,0,5.48,2.77,5.48,6.2s-2.33,6.1-5.5,6.1a4.36,4.36,0,0,1-3.65-1.7l-.22,1.43H67.56V22.46Zm0,13a3.38,3.38,0,0,0,2.73,1.27c2,0,3-1.81,3-3.46a3.06,3.06,0,0,0-5.71-1.82Z" style="fill:#fff"/><path d="M82.41,25.84V23.13h3.17v2.71Zm0,13.39V27.47h3.17V39.23Z" style="fill:#fff"/><path d="M92.42,30.11v4.56a6.7,6.7,0,0,0,0,1c.09.69.35,1.11,1,1.11a2.7,2.7,0,0,0,1.28-.33l1,2.35A6,6,0,0,1,93,39.5,3.39,3.39,0,0,1,89.47,37a6.81,6.81,0,0,1-.22-2v-4.9H87.84V27.47h1.41l.49-2.59h2.68v2.59h3v2.64Z" style="fill:#fff"/><path d="M107.4,38.05a6.08,6.08,0,0,1-4.22,1.45,5.81,5.81,0,0,1-6-6.15,6,6,0,0,1,6.06-6.15,6.21,6.21,0,0,1,4.13,1.46l-1.63,2.21a3.11,3.11,0,0,0-5.32,2.48,3.16,3.16,0,0,0,3,3.42,3,3,0,0,0,2.26-.89Z" style="fill:#fff"/><path d="M121.4,33.35a6.16,6.16,0,1,1-6.15-6.15A6,6,0,0,1,121.4,33.35Zm-6.15-3.42c-1.74,0-2.93,1.5-2.93,3.42s1.19,3.42,2.93,3.42,2.91-1.5,2.91-3.42S117,29.93,115.25,29.93Z" style="fill:#fff"/><path d="M138.7,39.23V33.28a6.14,6.14,0,0,0-.35-2.52,1.6,1.6,0,0,0-1.57-.83,2.9,2.9,0,0,0-2.3,1.34,15.64,15.64,0,0,1,.11,1.86v6.1h-3.18V33.28a6,6,0,0,0-.35-2.55,1.57,1.57,0,0,0-1.5-.8,3.25,3.25,0,0,0-2.26,1.16v8.14h-3.17V27.47h2.75l.22,1.43a4.37,4.37,0,0,1,3.4-1.7,3.82,3.82,0,0,1,3.33,2,4.56,4.56,0,0,1,3.91-2,3.9,3.9,0,0,1,3.09,1.52,7,7,0,0,1,1,4.41v6.1Z" style="fill:#fff"/><path d="M148.07,27.47l.25,1.45A4.4,4.4,0,0,1,152,27.2c3.13,0,5.48,2.77,5.48,6.2s-2.32,6.1-5.5,6.1a4.59,4.59,0,0,1-3.44-1.41v6.73h-3.18V27.47Zm.43,8a3.36,3.36,0,0,0,2.73,1.27c2,0,3-1.81,3-3.46a3.05,3.05,0,0,0-5.7-1.82Z" style="fill:#fff"/><path d="M167.3,39.23l-.24-1a4,4,0,0,1-3.2,1.28c-2.19,0-4.23-1.32-4.23-3.73,0-2.89,2.69-3.81,5.12-3.81a10.34,10.34,0,0,1,2.13.25V32c0-1.47-.61-2.37-2.33-2.37a7.6,7.6,0,0,0-3.55,1l-.85-2.28a11.7,11.7,0,0,1,5-1.21c3.26,0,4.85,1.9,4.85,5v7.06Zm-.42-5.12a7.67,7.67,0,0,0-1.61-.2c-1.17,0-2.53.42-2.53,1.81a1.62,1.62,0,0,0,1.79,1.57,3.48,3.48,0,0,0,2.35-1Z" style="fill:#fff"/><path d="M176.22,27.47l.25,1.61a4.43,4.43,0,0,1,3.64-1.88,4,4,0,0,1,3.13,1.54,6.91,6.91,0,0,1,1,4.39v6.1h-3.17V33.28a6,6,0,0,0-.36-2.52,1.62,1.62,0,0,0-1.56-.83,3.07,3.07,0,0,0-2.55,1.5v7.8h-3.18V27.47Z" style="fill:#fff"/><path d="M189.73,27.47l2.37,7h0l2.42-7H198l-6.62,17.15-2.84-1.1,1.88-5-4.16-11.07Z" style="fill:#fff"/></svg>