<?xml version="1.0" encoding="utf-8"?>
<!-- Generator: Adobe Illustrator 22.0.1, SVG Export Plug-In . SVG Version: 6.00 Build 0)  -->
<svg version="1.1" id="Layer_1" xmlns="http://www.w3.org/2000/svg" xmlns:xlink="http://www.w3.org/1999/xlink" x="0px" y="0px"
	 viewBox="0 0 200 42" style="enable-background:new 0 0 200 42;" xml:space="preserve">
<style type="text/css">
	.st0{fill:#0C35FB;}
	.st1{fill:#FFFFFF;}
</style>
<g>
	<g>
		<polygon class="st0" points="13.4,7.7 18.4,7.7 18.4,1 8.3,1 8.3,5.4 13.4,5.4 		"/>
		<polygon class="st0" points="18.4,34.3 18.4,31.8 18.4,26.9 18.4,24.3 18.4,17.7 13.4,17.7 13.4,24.3 13.4,26.9 13.4,31.8 
			13.4,34.3 13.4,36.8 6.9,36.8 6.9,41 24.7,41 24.7,36.8 18.4,36.8 		"/>
		<path class="st0" d="M30.3,10.2H21h-2.6h-5H12c-0.4,0-0.8,0-1.1,0C3.6,10.7,1,14.9,1,20.8c0,6.2,2.6,10.5,9.9,10.9v-4.9
			c-4.6-0.3-5.5-2.6-5.5-6c0-3.4,0.9-5.3,5.5-5.6c0.4,0,0.7,0,1.1,0h1.4h5H21h9.4c5.6,0,7.1,2,7.1,5.6c0,4.4-1.6,6.1-7.1,6.1H21v4.9
			h9.4c8.3,0,11.7-3.2,11.7-11C42.1,13.4,38.7,10.2,30.3,10.2z"/>
	</g>
	<g>
		<path class="st1" d="M69.8,27.7h-2l-0.2-1.8c-0.5,1-1.8,2-3.5,2c-3.2,0-3.9-1.7-4.1-3.3c-0.2-2.4,1.4-4.1,4.2-4.5
			c1.1-0.2,2.2-0.2,3.3-0.2v-1.3c0-1.5-0.5-2.5-2.6-2.5c-1.3,0-2.2,0.4-2.2,2.3h-2.2c-0.1-3,1.5-4.3,4.4-4.3c3,0,4.8,1.3,4.8,4.6
			V27.7z M64.4,21.9c-1.5,0.3-2.3,1-2.2,2.4c0.1,1.1,1.1,1.4,2.1,1.4c2.5,0,3.2-1.8,3.3-4C67,21.6,65.6,21.6,64.4,21.9z"/>
		<path class="st1" d="M83.4,22.7c0,3.7-1.4,5.2-5.2,5.2s-5.2-1.5-5.2-5.2V9.3h2.3v5.9c0.5-0.8,1.7-1.4,3.3-1.4
			c3.5,0,4.8,1.9,4.8,5.2V22.7z M75.3,22.7c0,2.5,1,3.1,2.9,3.1c1.9,0,2.9-0.6,2.9-3.1v-3.5c0-2.5-0.9-3.2-2.9-3.2
			c-1.7,0-2.9,0.6-2.9,3.1L75.3,22.7z"/>
		<path class="st1" d="M89.4,10.9c0,1.7-2.7,1.8-2.7,0C86.7,9.2,89.4,9.1,89.4,10.9z M86.9,27.7V14.1h2.2v13.5H86.9z"/>
		<path class="st1" d="M92.9,11.7l2.2-0.3v2.7h2.4v2.1h-2.4v7.6c0,1.4,0.6,2,2.5,1.8v2.1c-3.7,0.4-4.7-1.2-4.7-3.8V11.7z"/>
		<path class="st1" d="M110.1,23.1c0,3.6-1.5,4.8-5.1,4.8s-5.2-1.5-5.2-5.2v-3.9c0-3.6,2-5,5.2-5c3.1,0,4.9,1.1,5.1,4.6l-2.1,0
			c-0.1-2.1-1.1-2.5-2.9-2.5c-1.9,0-2.9,0.4-2.9,2.9v3.9c0,2.5,1,3.1,2.9,3.1s2.9-0.4,2.9-2.7H110.1z"/>
		<path class="st1" d="M112.8,22.7v-3.9c0-3.6,2-4.9,5.2-4.9c3.2,0,5.2,1.3,5.2,4.9v3.9c0,3.7-1.5,5.2-5.2,5.2
			C114.3,27.9,112.8,26.4,112.8,22.7z M120.9,22.7v-3.9c0-2.5-1.1-3-2.9-3c-1.9,0-2.9,0.5-2.9,3v3.9c0,2.5,0.9,3.3,2.9,3.3
			C120.1,26,120.9,25.2,120.9,22.7z"/>
		<path class="st1" d="M126.6,14h1.9l0.2,1.5c0.9-1.3,2.2-1.7,3.5-1.7c1.8,0,3.1,0.5,3.8,1.7c0.9-1.1,2.3-1.7,4.2-1.7
			c3,0,4.7,1.1,4.7,5v8.8h-2.3v-8.9c0-2-1.1-2.8-2.7-2.8c-2,0-3,1-3,3.5v8.2h-2.3v-8.9c0-2.4-1.1-2.8-2.7-2.8c-1.7,0-3,0.8-3,2.8
			v8.9h-2.3V14z"/>
		<path class="st1" d="M148.6,14h1.9l0.3,1.8c0.4-1.2,1.8-1.9,3.4-1.9c2.8,0,4.7,1.2,4.7,4.9v3.6c0,3.7-1.8,5.3-4.7,5.3
			c-1.5,0-2.6-0.2-3.3-1.2v5.7h-2.3V14z M153.7,25.6c2,0,2.9-0.8,2.9-3.2v-3.6c0-2.2-0.9-2.8-2.8-2.8c-1.9,0.1-3,0.9-3,3.6v2.9
			C150.9,24.9,151.7,25.6,153.7,25.6z"/>
		<path class="st1" d="M171.7,27.7h-2l-0.2-1.8c-0.5,1-1.8,2-3.5,2c-3.2,0-3.9-1.7-4.1-3.3c-0.2-2.4,1.4-4.1,4.2-4.5
			c1.1-0.2,2.2-0.2,3.3-0.2v-1.3c0-1.5-0.5-2.5-2.6-2.5c-1.3,0-2.2,0.4-2.2,2.3h-2.2c-0.1-3,1.5-4.3,4.4-4.3c3,0,4.8,1.3,4.8,4.6
			V27.7z M166.3,21.9c-1.5,0.3-2.3,1-2.2,2.4c0.1,1.1,1.1,1.4,2.1,1.4c2.5,0,3.2-1.8,3.3-4C168.8,21.6,167.5,21.6,166.3,21.9z"/>
		<path class="st1" d="M175.5,14h2l0.1,1.4c0.8-1.3,2.2-1.6,3.5-1.6c3,0,4.6,1.3,4.6,4.9v8.9h-2.3v-8.9c0-1.9-1.1-2.9-2.7-2.9
			c-1.7,0-3,1-3,2.9v8.9h-2.3V14z"/>
		<path class="st1" d="M193.6,24.7c0.3-1.3,0.7-3.1,1.7-6.5l1.3-4.2h2.3l-4.3,13.7l-0.8,2.6c-0.9,2.7-2.4,3.4-5,2.4l0.4-1.9
			c1,0.4,2.1,0.6,2.6-1.1l0.6-1.9L188,14h2.5l1.3,4.4L193.6,24.7z"/>
	</g>
</g>
</svg>
