<svg xmlns="http://www.w3.org/2000/svg" viewBox="0 0 908.12 902.47"><title>header-illustration</title><path d="M55.31,864.09a2,2,0,0,1-3.24,0l-4.86-4.86a2,2,0,0,1,0-3.24l4.86-4.87a2,2,0,0,1,3.24,0L60.17,856a2,2,0,0,1,0,3.24Z" style="fill:#0c35fb"/><path d="M146,866.68q-2.26,2.27-4.53,0l-6.81-6.81q-2.26-2.26,0-4.53l6.81-6.81q2.27-2.26,4.53,0l6.81,6.81q2.27,2.26,0,4.53Z" style="fill:#0c35fb"/><path d="M236.65,869.27q-2.91,2.93-5.83,0l-8.75-8.75c-1.94-1.94-1.94-3.89,0-5.83l8.75-8.75q2.93-2.93,5.83,0l8.76,8.75c1.94,1.94,1.94,3.89,0,5.83Z" style="fill:#0c35fb"/><path d="M327.33,871.87q-3.57,3.55-7.13,0l-10.7-10.7q-3.57-3.57,0-7.13l10.7-10.69q3.56-3.57,7.13,0L338,854q3.57,3.57,0,7.13Z" style="fill:#0c35fb"/><path d="M418,874.46q-4.22,4.21-8.43,0l-12.64-12.64q-4.21-4.22,0-8.43l12.64-12.64q4.21-4.2,8.43,0l12.64,12.64q4.22,4.22,0,8.43Z" style="fill:#0c35fb"/><path d="M508.67,877.05q-4.86,4.86-9.72,0l-14.59-14.58q-4.86-4.86,0-9.73L499,838.16q4.86-4.86,9.72,0l14.58,14.58q4.86,4.88,0,9.73Z" style="fill:#0c35fb"/><path d="M599.34,879.64q-5.51,5.52-11,0l-16.53-16.52q-5.5-5.52,0-11l16.53-16.53q5.5-5.51,11,0l16.53,16.53q5.5,5.5,0,11Z" style="fill:#0c35fb"/><path d="M690,882.24q-6.15,6.15-12.31,0l-18.48-18.48q-6.15-6.15,0-12.31L677.7,833q6.15-6.16,12.31,0l18.47,18.47q6.16,6.15,0,12.31Z" style="fill:#0c35fb"/><path d="M780.68,884.83q-6.79,6.81-13.61,0l-20.42-20.42q-6.79-6.81,0-13.61l20.42-20.42q6.81-6.79,13.61,0L801.1,850.8q6.81,6.81,0,13.61Z" style="fill:#0c35fb"/><path d="M871.35,887.42q-7.46,7.46-14.9,0l-22.37-22.36q-7.44-7.45,0-14.91l22.37-22.36q7.45-7.45,14.9,0l22.37,22.36q7.44,7.46,0,14.91Z" style="fill:#0c35fb"/><path d="M55.31,774.06a2,2,0,0,1-3.24,0l-4.86-4.86a2,2,0,0,1,0-3.24l4.86-4.86a2,2,0,0,1,3.24,0L60.17,766a2,2,0,0,1,0,3.24Z" style="fill:#0c35fb"/><path d="M146,776.66q-2.26,2.26-4.53,0l-6.81-6.81q-2.26-2.26,0-4.54l6.81-6.8q2.27-2.26,4.53,0l6.81,6.8q2.27,2.28,0,4.54Z" style="fill:#0c35fb"/><path d="M236.65,779.25q-2.91,2.91-5.83,0l-8.75-8.75c-1.94-1.94-1.94-3.89,0-5.83l8.75-8.75q2.93-2.92,5.83,0l8.76,8.75c1.94,1.94,1.94,3.89,0,5.83Z" style="fill:#0c35fb"/><path d="M327.33,781.84q-3.57,3.57-7.13,0l-10.7-10.69q-3.57-3.57,0-7.13l10.7-10.7q3.56-3.55,7.13,0L338,764q3.57,3.56,0,7.13Z" style="fill:#0c35fb"/><path d="M418,784.44q-4.22,4.2-8.43,0L396.93,771.8q-4.21-4.21,0-8.43l12.64-12.64q4.21-4.22,8.43,0l12.64,12.64q4.22,4.21,0,8.43Z" style="fill:#0c35fb"/><path d="M508.67,787q-4.86,4.86-9.72,0l-14.59-14.59q-4.86-4.86,0-9.72L499,748.14q4.86-4.86,9.72,0l14.58,14.58q4.86,4.86,0,9.72Z" style="fill:#0c35fb"/><path d="M599.34,789.62q-5.51,5.5-11,0l-16.53-16.53q-5.5-5.51,0-11l16.53-16.52q5.5-5.52,11,0l16.53,16.52q5.5,5.52,0,11Z" style="fill:#0c35fb"/><path d="M690,792.21q-6.15,6.16-12.31,0l-18.48-18.47q-6.15-6.15,0-12.31L677.7,743q6.15-6.15,12.31,0l18.47,18.48q6.16,6.15,0,12.31Z" style="fill:#0c35fb"/><path d="M780.68,794.81q-6.79,6.8-13.61,0l-20.42-20.42q-6.79-6.81,0-13.61l20.42-20.42q6.81-6.81,13.61,0l20.42,20.42q6.81,6.79,0,13.61Z" style="fill:#0c35fb"/><path d="M871.35,797.4q-7.46,7.46-14.9,0L834.08,775q-7.44-7.45,0-14.91l22.37-22.36q7.45-7.46,14.9,0l22.37,22.36q7.44,7.46,0,14.91Z" style="fill:#0c35fb"/><path d="M146,686.63q-2.26,2.28-4.53,0l-6.81-6.8c-1.51-1.51-1.51-3,0-4.54l6.81-6.8q2.27-2.28,4.53,0l6.81,6.8c1.51,1.51,1.51,3,0,4.54Z" style="fill:#0c35fb"/><path d="M327.33,691.82q-3.57,3.57-7.13,0l-10.7-10.7q-3.57-3.55,0-7.13l10.7-10.69q3.56-3.57,7.13,0L338,674q3.57,3.57,0,7.13Z" style="fill:#0c35fb"/><path d="M418,694.41q-4.22,4.22-8.43,0l-12.64-12.64q-4.21-4.21,0-8.42l12.64-12.64q4.21-4.22,8.43,0l12.64,12.64q4.22,4.21,0,8.42Z" style="fill:#0c35fb"/><path d="M508.67,697q-4.86,4.88-9.72,0l-14.59-14.58q-4.86-4.86,0-9.72L499,658.11q4.86-4.86,9.72,0l14.58,14.59q4.86,4.86,0,9.72Z" style="fill:#0c35fb"/><path d="M599.34,699.6q-5.51,5.5-11,0l-16.53-16.53q-5.5-5.51,0-11l16.53-16.53q5.5-5.5,11,0l16.53,16.53q5.5,5.51,0,11Z" style="fill:#0c35fb"/><path d="M690,702.19q-6.15,6.16-12.31,0l-18.48-18.47q-6.15-6.16,0-12.32l18.48-18.47q6.15-6.16,12.31,0l18.47,18.47q6.16,6.17,0,12.32Z" style="fill:#0c35fb"/><path d="M871.35,707.38q-7.46,7.44-14.9,0L834.08,685q-7.44-7.46,0-14.9l22.37-22.37q7.45-7.46,14.9,0l22.37,22.37q7.44,7.46,0,14.9Z" style="fill:#0c35fb"/><path d="M55.31,594a2,2,0,0,1-3.24,0l-4.86-4.86a2,2,0,0,1,0-3.24l4.86-4.87a2,2,0,0,1,3.24,0l4.86,4.87a2,2,0,0,1,0,3.24Z" style="fill:#0c35fb"/><path d="M146,596.61q-2.26,2.26-4.53,0l-6.81-6.81q-2.26-2.26,0-4.53l6.81-6.81q2.27-2.26,4.53,0l6.81,6.81q2.27,2.26,0,4.53Z" style="fill:#0c35fb"/><path d="M236.65,599.2q-2.91,2.92-5.83,0l-8.75-8.75c-1.94-1.94-1.94-3.89,0-5.83l8.75-8.75q2.93-2.91,5.83,0l8.76,8.75c1.94,1.94,1.94,3.89,0,5.83Z" style="fill:#0c35fb"/><path d="M327.33,601.8q-3.57,3.56-7.13,0l-10.7-10.7q-3.57-3.55,0-7.13l10.7-10.69q3.56-3.57,7.13,0L338,584q3.57,3.57,0,7.13Z" style="fill:#0c35fb"/><path d="M418,604.39q-4.22,4.22-8.43,0l-12.64-12.64q-4.21-4.21,0-8.43l12.64-12.64q4.21-4.2,8.43,0l12.64,12.64q4.22,4.21,0,8.43Z" style="fill:#0c35fb"/><path d="M508.67,607q-4.86,4.86-9.72,0L484.36,592.4q-4.86-4.86,0-9.72L499,568.09q4.86-4.86,9.72,0l14.58,14.59q4.86,4.86,0,9.72Z" style="fill:#0c35fb"/><path d="M599.34,609.57q-5.51,5.52-11,0l-16.53-16.52q-5.5-5.52,0-11l16.53-16.53q5.5-5.5,11,0L615.87,582q5.5,5.51,0,11Z" style="fill:#0c35fb"/><path d="M690,612.17q-6.15,6.15-12.31,0l-18.48-18.48q-6.15-6.15,0-12.31l18.48-18.47q6.15-6.17,12.31,0l18.47,18.47q6.16,6.15,0,12.31Z" style="fill:#0c35fb"/><path d="M780.68,614.76q-6.79,6.81-13.61,0l-20.42-20.42q-6.79-6.81,0-13.61l20.42-20.42q6.81-6.79,13.61,0l20.42,20.42q6.81,6.81,0,13.61Z" style="fill:#0c35fb"/><path d="M871.35,617.35q-7.46,7.46-14.9,0L834.08,595q-7.44-7.46,0-14.91l22.37-22.36q7.45-7.46,14.9,0l22.37,22.36q7.44,7.45,0,14.91Z" style="fill:#0c35fb"/><path d="M236.65,509.18q-2.91,2.93-5.83,0l-8.75-8.75c-1.94-1.94-1.94-3.89,0-5.83l8.75-8.75q2.93-2.93,5.83,0l8.76,8.75c1.94,1.94,1.94,3.89,0,5.83Z" style="fill:#0c35fb"/><path d="M418,514.37q-4.22,4.2-8.43,0l-12.64-12.64q-4.21-4.22,0-8.43l12.64-12.64q4.21-4.21,8.43,0l12.64,12.64q4.22,4.21,0,8.43Z" style="fill:#0c35fb"/><path d="M508.67,517q-4.86,4.86-9.72,0l-14.59-14.58q-4.86-4.87,0-9.73L499,478.07q4.86-4.86,9.72,0l14.58,14.58q4.86,4.86,0,9.73Z" style="fill:#0c35fb"/><path d="M599.34,519.55q-5.51,5.51-11,0L571.79,503q-5.5-5.5,0-11l16.53-16.52q5.5-5.52,11,0L615.87,492q5.5,5.52,0,11Z" style="fill:#0c35fb"/><path d="M690,522.14q-6.15,6.17-12.31,0l-18.48-18.47q-6.15-6.15,0-12.31l18.48-18.48q6.15-6.15,12.31,0l18.47,18.48q6.16,6.15,0,12.31Z" style="fill:#0c35fb"/><path d="M871.35,527.33q-7.46,7.45-14.9,0L834.08,505q-7.44-7.46,0-14.91l22.37-22.36q7.45-7.45,14.9,0l22.37,22.36q7.44,7.45,0,14.91Z" style="fill:#0c35fb"/><path d="M236.65,419.16q-2.91,2.91-5.83,0l-8.75-8.75c-1.94-2-1.94-3.89,0-5.84l8.75-8.75q2.93-2.91,5.83,0l8.76,8.75c1.94,1.95,1.94,3.89,0,5.84Z" style="fill:#0c35fb"/><path d="M327.33,421.75q-3.57,3.57-7.13,0l-10.7-10.69q-3.57-3.57,0-7.13l10.7-10.7q3.56-3.57,7.13,0L338,403.93q3.57,3.56,0,7.13Z" style="fill:#0c35fb"/><path d="M418,424.34q-4.22,4.21-8.43,0L396.93,411.7q-4.21-4.21,0-8.42l12.64-12.64q4.21-4.22,8.43,0l12.64,12.64q4.22,4.22,0,8.42Z" style="fill:#0c35fb"/><path d="M508.67,426.93q-4.86,4.88-9.72,0l-14.59-14.58q-4.86-4.86,0-9.72L499,388.05q4.86-4.87,9.72,0l14.58,14.58q4.86,4.86,0,9.72Z" style="fill:#0c35fb"/><path d="M599.34,429.53q-5.51,5.5-11,0L571.79,413q-5.5-5.5,0-11l16.53-16.53q5.5-5.51,11,0L615.87,402q5.5,5.5,0,11Z" style="fill:#0c35fb"/><path d="M690,432.12q-6.15,6.17-12.31,0l-18.48-18.47q-6.15-6.16,0-12.32l18.48-18.47q6.15-6.15,12.31,0l18.47,18.47q6.16,6.17,0,12.32Z" style="fill:#0c35fb"/><path d="M780.68,434.71q-6.79,6.81-13.61,0L746.65,414.3q-6.79-6.81,0-13.62l20.42-20.41q6.81-6.81,13.61,0l20.42,20.41q6.81,6.81,0,13.62Z" style="fill:#0c35fb"/><path d="M871.35,437.31q-7.46,7.44-14.9,0l-22.37-22.37q-7.44-7.45,0-14.9l22.37-22.37q7.45-7.44,14.9,0L893.72,400q7.44,7.45,0,14.9Z" style="fill:#0c35fb"/><path d="M236.65,329.13q-2.91,2.92-5.83,0l-8.75-8.75c-1.94-1.94-1.94-3.89,0-5.83l8.75-8.75q2.93-2.91,5.83,0l8.76,8.75c1.94,1.94,1.94,3.89,0,5.83Z" style="fill:#0c35fb"/><path d="M327.33,331.73q-3.57,3.56-7.13,0L309.5,321q-3.57-3.55,0-7.13l10.7-10.69q3.56-3.57,7.13,0L338,313.9q3.57,3.57,0,7.13Z" style="fill:#0c35fb"/><path d="M418,334.32q-4.22,4.21-8.43,0l-12.64-12.64q-4.21-4.21,0-8.43l12.64-12.63q4.21-4.22,8.43,0l12.64,12.63q4.22,4.22,0,8.43Z" style="fill:#0c35fb"/><path d="M508.67,336.91q-4.86,4.86-9.72,0l-14.59-14.58q-4.86-4.86,0-9.72L499,298q4.86-4.86,9.72,0l14.58,14.59q4.86,4.86,0,9.72Z" style="fill:#0c35fb"/><path d="M599.34,339.51q-5.51,5.5-11,0L571.79,323q-5.5-5.52,0-11l16.53-16.53q5.5-5.51,11,0L615.87,312q5.5,5.51,0,11Z" style="fill:#0c35fb"/><path d="M690,342.1q-6.15,6.15-12.31,0l-18.48-18.48q-6.15-6.15,0-12.31l18.48-18.47q6.15-6.16,12.31,0l18.47,18.47q6.16,6.15,0,12.31Z" style="fill:#0c35fb"/><path d="M780.68,344.69q-6.79,6.81-13.61,0l-20.42-20.42q-6.79-6.79,0-13.61l20.42-20.42q6.81-6.8,13.61,0l20.42,20.42q6.81,6.81,0,13.61Z" style="fill:#0c35fb"/><path d="M871.35,347.28q-7.46,7.46-14.9,0l-22.37-22.36q-7.44-7.46,0-14.91l22.37-22.36q7.45-7.45,14.9,0L893.72,310q7.44,7.46,0,14.91Z" style="fill:#0c35fb"/><path d="M146,236.52q-2.26,2.26-4.53,0l-6.81-6.81q-2.26-2.27,0-4.53l6.81-6.81q2.27-2.26,4.53,0l6.81,6.81q2.27,2.26,0,4.53Z" style="fill:#0c35fb"/><path d="M599.34,249.48q-5.51,5.51-11,0L571.79,233q-5.5-5.5,0-11l16.53-16.52q5.5-5.52,11,0l16.53,16.52q5.5,5.52,0,11Z" style="fill:#0c35fb"/><path d="M780.68,254.67q-6.79,6.79-13.61,0l-20.42-20.42q-6.79-6.81,0-13.61l20.42-20.42q6.81-6.81,13.61,0l20.42,20.42q6.81,6.81,0,13.61Z" style="fill:#0c35fb"/><path d="M871.35,257.26q-7.46,7.46-14.9,0L834.08,234.9q-7.44-7.46,0-14.91l22.37-22.36q7.45-7.45,14.9,0L893.72,220q7.44,7.45,0,14.91Z" style="fill:#0c35fb"/><path d="M871.35,167.24q-7.46,7.45-14.9,0l-22.37-22.36q-7.44-7.45,0-14.91l22.37-22.36q7.45-7.45,14.9,0L893.72,130q7.44,7.46,0,14.91Z" style="fill:#0c35fb"/><path d="M871.35,77.21q-7.46,7.46-14.9,0L834.08,54.85q-7.44-7.45,0-14.91l22.37-22.36q7.45-7.45,14.9,0l22.37,22.36q7.44,7.45,0,14.91Z" style="fill:#0c35fb"/><path d="M10.12,908.38a1.8,1.8,0,0,1-2.88,0l-4.32-4.32a1.8,1.8,0,0,1,0-2.88l4.32-4.32a1.8,1.8,0,0,1,2.88,0l4.32,4.32a1.8,1.8,0,0,1,0,2.88Z" style="fill:#0c35fb"/><path d="M100.86,911.26q-2.16,2.16-4.32,0l-6.48-6.48q-2.16-2.16,0-4.32L96.54,894q2.16-2.18,4.32,0l6.49,6.48q2.16,2.16,0,4.32Z" style="fill:#0c35fb"/><path d="M191.61,914.14q-2.88,2.88-5.76,0l-8.65-8.64q-2.88-2.88,0-5.76l8.65-8.65q2.88-2.88,5.76,0l8.64,8.65q2.88,2.88,0,5.76Z" style="fill:#0c35fb"/><path d="M282.35,917q-3.6,3.6-7.2,0l-10.8-10.8q-3.6-3.6,0-7.2l10.8-10.81q3.6-3.6,7.2,0L293.15,899q3.6,3.6,0,7.2Z" style="fill:#0c35fb"/><path d="M373.09,919.9q-4.32,4.32-8.64,0l-13-13q-4.32-4.32,0-8.64l13-13q4.32-4.32,8.64,0l13,13q4.32,4.32,0,8.64Z" style="fill:#0c35fb"/><path d="M463.84,922.78q-5,5-10.09,0l-15.12-15.12q-5-5,0-10.08l15.12-15.13q5.06-5,10.09,0L479,897.58q5,5,0,10.08Z" style="fill:#0c35fb"/><path d="M554.58,925.66q-5.76,5.76-11.52,0l-17.29-17.28q-5.76-5.76,0-11.52l17.29-17.29q5.76-5.76,11.52,0l17.28,17.29q5.77,5.76,0,11.52Z" style="fill:#0c35fb"/><path d="M645.32,928.54q-6.48,6.5-13,0L612.92,909.1q-6.49-6.48,0-13l19.44-19.45q6.48-6.48,13,0l19.45,19.45q6.48,6.48,0,13Z" style="fill:#0c35fb"/><path d="M736.07,931.43q-7.2,7.2-14.41,0l-21.6-21.61q-7.2-7.2,0-14.4l21.6-21.61q7.2-7.2,14.41,0l21.6,21.61q7.2,7.2,0,14.4Z" style="fill:#0c35fb"/><path d="M826.81,934.31q-7.92,7.92-15.84,0L787.2,910.54q-7.92-7.92,0-15.84L811,870.93q7.92-7.92,15.84,0l23.77,23.77q7.92,7.92,0,15.84Z" style="fill:#0c35fb"/><path d="M917.55,937.19q-8.64,8.64-17.28,0l-25.93-25.93q-8.64-8.64,0-17.28l25.93-25.93q8.64-8.64,17.28,0L943.48,894q8.64,8.64,0,17.28Z" style="fill:#0c35fb"/><path d="M10.12,818.36a1.8,1.8,0,0,1-2.88,0L2.92,814a1.8,1.8,0,0,1,0-2.88l4.32-4.32a1.8,1.8,0,0,1,2.88,0l4.32,4.32a1.8,1.8,0,0,1,0,2.88Z" style="fill:#0c35fb"/><path d="M100.86,821.24q-2.16,2.16-4.32,0l-6.48-6.49q-2.16-2.16,0-4.32L96.54,804q2.16-2.16,4.32,0l6.49,6.48q2.16,2.16,0,4.32Z" style="fill:#0c35fb"/><path d="M191.61,824.12q-2.88,2.88-5.76,0l-8.65-8.64q-2.88-2.9,0-5.77l8.65-8.64q2.88-2.88,5.76,0l8.64,8.64q2.88,2.88,0,5.77Z" style="fill:#0c35fb"/><path d="M282.35,827q-3.6,3.6-7.2,0l-10.8-10.8q-3.6-3.62,0-7.21l10.8-10.8q3.6-3.6,7.2,0l10.8,10.8q3.6,3.6,0,7.21Z" style="fill:#0c35fb"/><path d="M373.09,829.88q-4.32,4.32-8.64,0l-13-13q-4.32-4.33,0-8.65l13-13q4.32-4.32,8.64,0l13,13q4.32,4.32,0,8.65Z" style="fill:#0c35fb"/><path d="M463.84,832.76q-5,5-10.09,0l-15.12-15.12q-5-5.05,0-10.09l15.12-15.12q5.06-5,10.09,0L479,807.55q5,5,0,10.09Z" style="fill:#0c35fb"/><path d="M554.58,835.64q-5.76,5.76-11.52,0l-17.29-17.28q-5.76-5.77,0-11.53l17.29-17.28q5.76-5.76,11.52,0l17.28,17.28q5.77,5.76,0,11.53Z" style="fill:#0c35fb"/><path d="M645.32,838.52q-6.48,6.48-13,0l-19.44-19.44q-6.49-6.5,0-13l19.44-19.44q6.48-6.48,13,0l19.45,19.44q6.48,6.48,0,13Z" style="fill:#0c35fb"/><path d="M736.07,841.4q-7.2,7.2-14.41,0l-21.6-21.6q-7.2-7.21,0-14.41l21.6-21.6q7.2-7.2,14.41,0l21.6,21.6q7.2,7.2,0,14.41Z" style="fill:#0c35fb"/><path d="M826.81,844.28q-7.92,7.92-15.84,0L787.2,820.52q-7.92-7.93,0-15.85L811,780.91q7.92-7.93,15.84,0l23.77,23.76q7.92,7.92,0,15.85Z" style="fill:#0c35fb"/><path d="M917.55,847.16q-8.64,8.64-17.28,0l-25.93-25.92q-8.64-8.64,0-17.29L900.27,778q8.64-8.65,17.28,0L943.48,804q8.64,8.64,0,17.29Z" style="fill:#0c35fb"/><path d="M100.86,731.21q-2.16,2.16-4.32,0l-6.48-6.48q-2.16-2.16,0-4.32l6.48-6.48q2.16-2.16,4.32,0l6.49,6.48q2.16,2.16,0,4.32Z" style="fill:#0c35fb"/><path d="M191.61,734.09q-2.88,2.88-5.76,0l-8.65-8.64q-2.88-2.88,0-5.76l8.65-8.64q2.88-2.88,5.76,0l8.64,8.64q2.88,2.88,0,5.76Z" style="fill:#0c35fb"/><path d="M282.35,737q-3.6,3.6-7.2,0l-10.8-10.81q-3.6-3.6,0-7.2l10.8-10.8q3.6-3.6,7.2,0l10.8,10.8q3.6,3.6,0,7.2Z" style="fill:#0c35fb"/><path d="M463.84,742.74q-5,5-10.09,0l-15.12-15.13q-5-5,0-10.08l15.12-15.12q5.06-5,10.09,0L479,717.53q5,5,0,10.08Z" style="fill:#0c35fb"/><path d="M554.58,745.62q-5.76,5.76-11.52,0l-17.29-17.29q-5.76-5.76,0-11.52l17.29-17.28q5.76-5.78,11.52,0l17.28,17.28q5.77,5.76,0,11.52Z" style="fill:#0c35fb"/><path d="M645.32,748.5q-6.48,6.48-13,0l-19.44-19.45q-6.49-6.48,0-13l19.44-19.45q6.48-6.48,13,0l19.45,19.45q6.48,6.48,0,13Z" style="fill:#0c35fb"/><path d="M736.07,751.38q-7.2,7.2-14.41,0l-21.6-21.61q-7.2-7.2,0-14.4l21.6-21.61q7.2-7.2,14.41,0l21.6,21.61q7.2,7.2,0,14.4Z" style="fill:#0c35fb"/><path d="M826.81,754.26q-7.92,7.92-15.84,0L787.2,730.49q-7.92-7.92,0-15.84L811,690.88q7.92-7.92,15.84,0l23.77,23.77q7.92,7.92,0,15.84Z" style="fill:#0c35fb"/><path d="M917.55,757.14q-8.64,8.64-17.28,0l-25.93-25.93q-8.64-8.64,0-17.28L900.27,688q8.64-8.64,17.28,0l25.93,25.93q8.64,8.64,0,17.28Z" style="fill:#0c35fb"/><path d="M10.12,638.31a1.8,1.8,0,0,1-2.88,0L2.92,634a1.8,1.8,0,0,1,0-2.88l4.32-4.32a1.8,1.8,0,0,1,2.88,0l4.32,4.32a1.8,1.8,0,0,1,0,2.88Z" style="fill:#0c35fb"/><path d="M100.86,641.19q-2.16,2.16-4.32,0l-6.48-6.48q-2.16-2.16,0-4.32l6.48-6.48q2.16-2.16,4.32,0l6.49,6.48q2.16,2.16,0,4.32Z" style="fill:#0c35fb"/><path d="M191.61,644.07q-2.88,2.88-5.76,0l-8.65-8.64q-2.88-2.88,0-5.76l8.65-8.64q2.88-2.89,5.76,0l8.64,8.64q2.88,2.88,0,5.76Z" style="fill:#0c35fb"/><path d="M282.35,647q-3.6,3.6-7.2,0l-10.8-10.8q-3.6-3.6,0-7.2l10.8-10.81q3.6-3.6,7.2,0L293.15,629q3.6,3.6,0,7.2Z" style="fill:#0c35fb"/><path d="M554.58,655.59q-5.76,5.77-11.52,0l-17.29-17.28q-5.76-5.76,0-11.52l17.29-17.29q5.76-5.76,11.52,0l17.28,17.29q5.77,5.76,0,11.52Z" style="fill:#0c35fb"/><path d="M736.07,661.36q-7.2,7.2-14.41,0l-21.6-21.61q-7.2-7.2,0-14.4l21.6-21.61q7.2-7.2,14.41,0l21.6,21.61q7.2,7.2,0,14.4Z" style="fill:#0c35fb"/><path d="M826.81,664.24q-7.92,7.92-15.84,0L787.2,640.47q-7.92-7.92,0-15.84L811,600.86q7.92-7.92,15.84,0l23.77,23.77q7.92,7.92,0,15.84Z" style="fill:#0c35fb"/><path d="M917.55,667.12q-8.64,8.64-17.28,0l-25.93-25.93q-8.64-8.64,0-17.28L900.27,598q8.64-8.64,17.28,0l25.93,25.93q8.64,8.64,0,17.28Z" style="fill:#0c35fb"/><path d="M10.12,548.29a1.8,1.8,0,0,1-2.88,0L2.92,544a1.8,1.8,0,0,1,0-2.88l4.32-4.33a1.8,1.8,0,0,1,2.88,0l4.32,4.33a1.8,1.8,0,0,1,0,2.88Z" style="fill:#0c35fb"/><path d="M282.35,556.93q-3.6,3.6-7.2,0l-10.8-10.8q-3.6-3.6,0-7.21l10.8-10.8q3.6-3.6,7.2,0l10.8,10.8q3.6,3.62,0,7.21Z" style="fill:#0c35fb"/><path d="M373.09,559.81q-4.32,4.32-8.64,0l-13-13q-4.32-4.32,0-8.65l13-13q4.32-4.32,8.64,0l13,13q4.32,4.34,0,8.65Z" style="fill:#0c35fb"/><path d="M463.84,562.69q-5,5-10.09,0l-15.12-15.12q-5-5,0-10.09l15.12-15.12q5.06-5,10.09,0L479,537.48q5,5.06,0,10.09Z" style="fill:#0c35fb"/><path d="M554.58,565.57q-5.76,5.76-11.52,0l-17.29-17.28q-5.76-5.76,0-11.53l17.29-17.28q5.76-5.76,11.52,0l17.28,17.28q5.77,5.76,0,11.53Z" style="fill:#0c35fb"/><path d="M736.07,571.33q-7.2,7.2-14.41,0l-21.6-21.6q-7.2-7.2,0-14.41l21.6-21.6q7.2-7.2,14.41,0l21.6,21.6q7.2,7.2,0,14.41Z" style="fill:#0c35fb"/><path d="M826.81,574.21q-7.92,7.92-15.84,0L787.2,550.45q-7.92-7.92,0-15.85L811,510.84q7.92-7.92,15.84,0l23.77,23.76q7.92,7.92,0,15.85Z" style="fill:#0c35fb"/><path d="M917.55,577.09q-8.64,8.65-17.28,0l-25.93-25.92q-8.64-8.64,0-17.29L900.27,508q8.64-8.65,17.28,0l25.93,25.92q8.64,8.64,0,17.29Z" style="fill:#0c35fb"/><path d="M100.86,461.14q-2.16,2.16-4.32,0l-6.48-6.48q-2.16-2.16,0-4.32l6.48-6.48q2.16-2.16,4.32,0l6.49,6.48q2.16,2.16,0,4.32Z" style="fill:#0c35fb"/><path d="M191.61,464q-2.88,2.89-5.76,0l-8.65-8.64q-2.88-2.88,0-5.76l8.65-8.64q2.88-2.88,5.76,0l8.64,8.64q2.88,2.88,0,5.76Z" style="fill:#0c35fb"/><path d="M373.09,469.79q-4.32,4.32-8.64,0l-13-13q-4.32-4.32,0-8.64l13-13q4.32-4.32,8.64,0l13,13q4.32,4.32,0,8.64Z" style="fill:#0c35fb"/><path d="M645.32,478.43q-6.48,6.48-13,0L612.92,459q-6.49-6.48,0-13l19.44-19.44q6.48-6.49,13,0L664.77,446q6.48,6.48,0,13Z" style="fill:#0c35fb"/><path d="M736.07,481.31q-7.2,7.2-14.41,0l-21.6-21.61q-7.2-7.2,0-14.4l21.6-21.61q7.2-7.2,14.41,0l21.6,21.61q7.2,7.2,0,14.4Z" style="fill:#0c35fb"/><path d="M826.81,484.19q-7.92,7.92-15.84,0L787.2,460.42q-7.92-7.92,0-15.84L811,420.81q7.92-7.92,15.84,0l23.77,23.77q7.92,7.92,0,15.84Z" style="fill:#0c35fb"/><path d="M917.55,487.07q-8.64,8.64-17.28,0l-25.93-25.93q-8.64-8.64,0-17.28l25.93-25.93q8.64-8.64,17.28,0l25.93,25.93q8.64,8.64,0,17.28Z" style="fill:#0c35fb"/><path d="M191.61,374q-2.88,2.88-5.76,0l-8.65-8.64q-2.88-2.88,0-5.76l8.65-8.64q2.88-2.88,5.76,0l8.64,8.64q2.88,2.88,0,5.76Z" style="fill:#0c35fb"/><path d="M282.35,376.88q-3.6,3.6-7.2,0l-10.8-10.8q-3.6-3.6,0-7.2l10.8-10.8q3.6-3.61,7.2,0l10.8,10.8q3.6,3.6,0,7.2Z" style="fill:#0c35fb"/><path d="M463.84,382.64q-5,5.06-10.09,0l-15.12-15.12q-5-5,0-10.08l15.12-15.13q5.06-5,10.09,0L479,357.44q5,5,0,10.08Z" style="fill:#0c35fb"/><path d="M645.32,388.41q-6.48,6.48-13,0L612.92,369q-6.49-6.48,0-13l19.44-19.45q6.48-6.48,13,0L664.77,356q6.48,6.48,0,13Z" style="fill:#0c35fb"/><path d="M826.81,394.17q-7.92,7.92-15.84,0L787.2,370.4q-7.92-7.92,0-15.84L811,330.79q7.92-7.92,15.84,0l23.77,23.77q7.92,7.92,0,15.84Z" style="fill:#0c35fb"/><path d="M917.55,397.05q-8.64,8.64-17.28,0l-25.93-25.93q-8.64-8.64,0-17.28l25.93-25.93q8.64-8.64,17.28,0l25.93,25.93q8.64,8.64,0,17.28Z" style="fill:#0c35fb"/><path d="M100.86,281.1q-2.16,2.16-4.32,0l-6.48-6.48q-2.16-2.16,0-4.33l6.48-6.48q2.16-2.16,4.32,0l6.49,6.48q2.16,2.18,0,4.33Z" style="fill:#0c35fb"/><path d="M282.35,286.86q-3.6,3.6-7.2,0l-10.8-10.8q-3.6-3.6,0-7.21l10.8-10.8q3.6-3.6,7.2,0l10.8,10.8q3.6,3.61,0,7.21Z" style="fill:#0c35fb"/><path d="M463.84,292.62q-5,5-10.09,0L438.63,277.5q-5-5,0-10.09l15.12-15.12q5.06-5,10.09,0L479,267.41q5,5.05,0,10.09Z" style="fill:#0c35fb"/><path d="M645.32,298.38q-6.48,6.48-13,0l-19.44-19.44q-6.49-6.48,0-13l19.44-19.44q6.48-6.48,13,0L664.77,266q6.48,6.48,0,13Z" style="fill:#0c35fb"/><path d="M736.07,301.26q-7.2,7.2-14.41,0l-21.6-21.6q-7.2-7.2,0-14.41l21.6-21.6q7.2-7.2,14.41,0l21.6,21.6q7.2,7.2,0,14.41Z" style="fill:#0c35fb"/><path d="M826.81,304.14q-7.92,7.92-15.84,0L787.2,280.38q-7.92-7.92,0-15.85L811,240.77q7.92-7.92,15.84,0l23.77,23.76q7.92,7.92,0,15.85Z" style="fill:#0c35fb"/><path d="M917.55,307q-8.64,8.66-17.28,0L874.34,281.1q-8.64-8.64,0-17.29l25.93-25.92q8.64-8.64,17.28,0l25.93,25.92q8.64,8.64,0,17.29Z" style="fill:#0c35fb"/><path d="M645.32,208.36q-6.48,6.48-13,0l-19.44-19.45q-6.49-6.48,0-13l19.44-19.44q6.48-6.48,13,0L664.77,176q6.48,6.48,0,13Z" style="fill:#0c35fb"/><path d="M736.07,211.24q-7.2,7.2-14.41,0l-21.6-21.61q-7.2-7.2,0-14.4l21.6-21.6q7.2-7.22,14.41,0l21.6,21.6q7.2,7.2,0,14.4Z" style="fill:#0c35fb"/><path d="M917.55,217q-8.64,8.64-17.28,0l-25.93-25.93q-8.64-8.64,0-17.28l25.93-25.93q8.64-8.64,17.28,0l25.93,25.93q8.64,8.64,0,17.28Z" style="fill:#0c35fb"/><path d="M917.55,127q-8.64,8.64-17.28,0l-25.93-25.93q-8.64-8.64,0-17.28l25.93-25.93q8.64-8.64,17.28,0l25.93,25.93q8.64,8.64,0,17.28Z" style="fill:#0c35fb"/><path d="M826.81,34.07q-7.92,7.93-15.84,0L787.2,10.31q-7.92-7.92,0-15.85L811-29.3q7.92-7.92,15.84,0L850.58-5.54q7.92,7.94,0,15.85Z" style="fill:#0c35fb"/><path d="M917.55,37q-8.64,8.64-17.28,0L874.34,11q-8.64-8.64,0-17.29l25.93-25.92q8.64-8.64,17.28,0L943.48-6.26q8.64,8.65,0,17.29Z" style="fill:#0c35fb"/></svg>